{
  "accessors": [
    {
      "bufferView": 1,
      "componentType": 5126,
      "count": 4714,
      "max": [
        46.50199890136719,
        -0.29319998621940613,
        -58.166099548339844
      ],
      "min": [
        13.899999618530273,
        -11.5,
        -89.3196029663086
      ],
      "type": "VEC3"
    },
    {
      "bufferView": 1,
      "byteOffset": 56568,
      "componentType": 5126,
      "count": 4714,
      "max": [
        0.9965429306030273,
        1.0,
        0.9772605299949646
      ],
      "min": [
        -1.0,
        -1.0,
        -0.9979277849197388
      ],
      "type": "VEC3"
    },
    {
      "bufferView": 0,
      "componentType": 5125,
      "count": 14274,
      "type": "SCALAR"
    },
    {
      "bufferView": 1,
      "byteOffset": 113136,
      "componentType": 5126,
      "count": 20258,
      "max": [
        46.80799865722656,
        -0.0,
        -41.0
      ],
      "min": [
        13.593999862670898,
        -11.57800006866455,
        -89.33899688720703
      ],
      "type": "VEC3"
    },
    {
      "bufferView": 1,
      "byteOffset": 356232,
      "componentType": 5126,
      "count": 20258,
      "max": [
        0.9995859265327454,
        1.0,
        1.0
      ],
      "min": [
        -1.0,
        -1.0,
        -1.0
      ],
      "type": "VEC3"
    },
    {
      "bufferView": 0,
      "byteOffset": 57096,
      "componentType": 5125,
      "count": 106620,
      "type": "SCALAR"
    },
    {
      "bufferView": 1,
      "byteOffset": 599328,
      "componentType": 5126,
      "count": 4437,
      "max": [
        37.9202995300293,
        -11.562399864196777,
        -57.771400451660156
      ],
      "min": [
        21.912900924682617,
        -19.42620086669922,
        -70.47959899902344
      ],
      "type": "VEC3"
    },
    {
      "bufferView": 1,
      "byteOffset": 652572,
      "componentType": 5126,
      "count": 4437,
      "max": [
        0.9993424415588379,
        0.8938607573509216,
        0.9905638098716736
      ],
      "min": [
        -0.9995746612548828,
        -0.8610249161720276,
        -0.9955683946609497
      ],
      "type": "VEC3"
    },
    {
      "bufferView": 0,
      "byteOffset": 483576,
      "componentType": 5125,
      "count": 14436,
      "type": "SCALAR"
    },
    {
      "bufferView": 1,
      "byteOffset": 705816,
      "componentType": 5126,
      "count": 1957,
      "max": [
        30.59670066833496,
        -11.85830020904541,
        -42.66630172729492
      ],
      "min": [
        29.40329933166504,
        -22.111000061035156,
        -70.78230285644531
      ],
      "type": "VEC3"
    },
    {
      "bufferView": 1,
      "byteOffset": 729300,
      "componentType": 5126,
      "count": 1957,
      "max": [
        0.9999936819076538,
        0.05211357772350311,
        0.9884989261627197
      ],
      "min": [
        -1.0,
        -0.9608706831932068,
        -0.8576183319091797
      ],
      "type": "VEC3"
    },
    {
      "bufferView": 0,
      "byteOffset": 541320,
      "componentType": 5125,
      "count": 8526,
      "type": "SCALAR"
    },
    {
      "bufferView": 1,
      "byteOffset": 752784,
      "componentType": 5126,
      "count": 8842,
      "max": [
        42.32619857788086,
        -6.998000144958496,
        -41.056800842285156
      ],
      "min": [
        17.673900604248047,
        -21.809999465942383,
        -89.17350006103516
      ],
      "type": "VEC3"
    },
    {
      "bufferView": 1,
      "byteOffset": 858888,
      "componentType": 5126,
      "count": 8842,
      "max": [
        0.9982524514198303,
        1.0,
        1.0
      ],
      "min": [
        -0.9953864812850952,
        -1.0,
        -1.0
      ],
      "type": "VEC3"
    },
    {
      "bufferView": 0,
      "byteOffset": 575424,
      "componentType": 5125,
      "count": 39246,
      "type": "SCALAR"
    }
  ],
  "asset": {
    "extras": {
      "author": "Squirmy Worm (https://sketchfab.com/squirmyworm064)",
      "license": "CC-BY-4.0 (http://creativecommons.org/licenses/by/4.0/)",
      "source": "https://sketchfab.com/3d-models/clodsire-f9f86eae289a46ac85feca7e8bd52757",
      "title": "Clodsire"
    },
    "generator": "Sketchfab-15.0.0",
    "version": "2.0"
  },
  "bufferViews": [
    {
      "buffer": 0,
      "byteLength": 732408,
      "name": "floatBufferViews",
      "target": 34963
    },
    {
      "buffer": 0,
      "byteLength": 964992,
      "byteOffset": 732408,
      "byteStride": 12,
      "name": "floatBufferViews",
      "target": 34962
    }
  ],
  "buffers": [
    {
      "byteLength": 1697400,
      "uri": "scene.bin"
    }
  ],
  "extensionsUsed": [
    "KHR_materials_unlit"
  ],
  "materials": [
    {
      "doubleSided": true,
      "extensions": {
        "KHR_materials_unlit": {}
      },
      "name": "color_0",
      "pbrMetallicRoughness": {
        "baseColorFactor": [
          0.0,
          0.0,
          0.0,
          1.0
        ],
        "metallicFactor": 0.0
      }
    },
    {
      "doubleSided": true,
      "extensions": {
        "KHR_materials_unlit": {}
      },
      "name": "color_10322783",
      "pbrMetallicRoughness": {
        "baseColorFactor": [
          0.30026978286695144,
          0.25679293213630344,
          0.18984605012364636,
          1.0
        ],
        "metallicFactor": 0.0
      }
    },
    {
      "doubleSided": true,
      "extensions": {
        "KHR_materials_unlit": {}
      },
      "name": "color_16762868",
      "pbrMetallicRoughness": {
        "baseColorFactor": [
          0.8818629212414747,
          0.5329208617282817,
          1.0,
          1.0
        ],
        "metallicFactor": 0.0
      }
    },
    {
      "doubleSided": true,
      "extensions": {
        "KHR_materials_unlit": {}
      },
      "name": "color_2958105",
      "pbrMetallicRoughness": {
        "baseColorFactor": [
          0.05921480597883917,
          0.04476631977199962,
          0.022879402976843835,
          1.0
        ],
        "metallicFactor": 0.0
      }
    },
    {
      "doubleSided": true,
      "extensions": {
        "KHR_materials_unlit": {}
      },
      "name": "color_5063218",
      "pbrMetallicRoughness": {
        "baseColorFactor": [
          0.10829235995947611,
          0.08437866841891048,
          0.053670766357232814,
          1.0
        ],
        "metallicFactor": 0.0
      }
    }
  ],
  "meshes": [
    {
      "name": "Object_0",
      "primitives": [
        {
          "attributes": {
            "NORMAL": 1,
            "POSITION": 0
          },
          "indices": 2,
          "material": 0,
          "mode": 4
        }
      ]
    },
    {
      "name": "Object_1",
      "primitives": [
        {
          "attributes": {
            "NORMAL": 4,
            "POSITION": 3
          },
          "indices": 5,
          "material": 1,
          "mode": 4
        }
      ]
    },
    {
      "name": "Object_2",
      "primitives": [
        {
          "attributes": {
            "NORMAL": 7,
            "POSITION": 6
          },
          "indices": 8,
          "material": 2,
          "mode": 4
        }
      ]
    },
    {
      "name": "Object_3",
      "primitives": [
        {
          "attributes": {
            "NORMAL": 10,
            "POSITION": 9
          },
          "indices": 11,
          "material": 3,
          "mode": 4
        }
      ]
    },
    {
      "name": "Object_4",
      "primitives": [
        {
          "attributes": {
            "NORMAL": 13,
            "POSITION": 12
          },
          "indices": 14,
          "material": 4,
          "mode": 4
        }
      ]
    }
  ],
  "nodes": [
    {
      "children": [
        1
      ],
      "matrix": [
        1.0,
        0.0,
        0.0,
        0.0,
        0.0,
        -1.0,
        -4.440892098500626e-16,
        0.0,
        0.0,
        4.440892098500626e-16,
        -1.0,
        0.0,
        0.0,
        0.0,
        0.0,
        1.0
      ],
      "name": "Sketchfab_model"
    },
    {
      "children": [
        2,
        3,
        4,
        5,
        6
      ],
      "name": "tinker.obj.cleaner.materialmerger.gles"
    },
    {
      "mesh": 0,
      "name": "Object_2"
    },
    {
      "mesh": 1,
      "name": "Object_3"
    },
    {
      "mesh": 2,
      "name": "Object_4"
    },
    {
      "mesh": 3,
      "name": "Object_5"
    },
    {
      "mesh": 4,
      "name": "Object_6"
    }
  ],
  "scene": 0,
  "scenes": [
    {
      "name": "Sketchfab_Scene",
      "nodes": [
        0
      ]
    }
  ]
}
